<svg width="81" height="61" viewBox="0 0 81 61" fill="none" xmlns="http://www.w3.org/2000/svg">
<g filter="url(#filter0_d_19_166)">
<path d="M25.5697 1.09091V52H16.3474V10.0646H16.0491L4.14213 17.6712V9.21946L16.7948 1.09091H25.5697ZM57.3133 52.9695C53.22 52.9695 49.7068 51.9337 46.7735 49.8622C43.8569 47.7741 41.6114 44.7663 40.037 40.8388C38.4793 36.8946 37.7004 32.1468 37.7004 26.5952C37.7169 21.0436 38.5041 16.3205 40.0619 12.4261C41.6362 8.51515 43.8817 5.5322 46.7984 3.47727C49.7316 1.42235 53.2366 0.394884 57.3133 0.394884C61.39 0.394884 64.895 1.42235 67.8282 3.47727C70.7615 5.5322 73.007 8.51515 74.5647 12.4261C76.1391 16.3371 76.9262 21.0601 76.9262 26.5952C76.9262 32.1634 76.1391 36.9195 74.5647 40.8636C73.007 44.7912 70.7615 47.7907 67.8282 49.8622C64.9115 51.9337 61.4066 52.9695 57.3133 52.9695ZM57.3133 45.1889C60.4951 45.1889 63.0058 43.6229 64.8453 40.4908C66.7013 37.3421 67.6294 32.7102 67.6294 26.5952C67.6294 22.5516 67.2068 19.1544 66.3616 16.4034C65.5164 13.6525 64.3232 11.581 62.782 10.1889C61.2409 8.7803 59.4179 8.07599 57.3133 8.07599C54.1481 8.07599 51.6457 9.65033 49.8062 12.799C47.9667 15.9311 47.0387 20.5298 47.0221 26.5952C47.0055 30.6553 47.4115 34.0691 48.2401 36.8366C49.0853 39.6042 50.2785 41.6922 51.8197 43.1009C53.3609 44.4929 55.1921 45.1889 57.3133 45.1889Z" fill="url(#paint0_linear_19_166)"/>
</g>
<defs>
<filter id="filter0_d_19_166" x="0.14209" y="0.394775" width="80.7842" height="60.5747" filterUnits="userSpaceOnUse" color-interpolation-filters="sRGB">
<feFlood flood-opacity="0" result="BackgroundImageFix"/>
<feColorMatrix in="SourceAlpha" type="matrix" values="0 0 0 0 0 0 0 0 0 0 0 0 0 0 0 0 0 0 127 0" result="hardAlpha"/>
<feOffset dy="4"/>
<feGaussianBlur stdDeviation="2"/>
<feComposite in2="hardAlpha" operator="out"/>
<feColorMatrix type="matrix" values="0 0 0 0 0 0 0 0 0 0 0 0 0 0 0 0 0 0 0.25 0"/>
<feBlend mode="normal" in2="BackgroundImageFix" result="effect1_dropShadow_19_166"/>
<feBlend mode="normal" in="SourceGraphic" in2="effect1_dropShadow_19_166" result="shape"/>
</filter>
<linearGradient id="paint0_linear_19_166" x1="40.5" y1="-9" x2="40.5" y2="63" gradientUnits="userSpaceOnUse">
<stop stop-color="#FED64A"/>
<stop offset="0.145" stop-color="#FEF14E"/>
<stop offset="0.31" stop-color="#FFDF6C"/>
<stop offset="0.48" stop-color="#FCFF67"/>
<stop offset="0.665" stop-color="#FED545"/>
<stop offset="0.835" stop-color="#FECA45"/>
<stop offset="0.965" stop-color="#FEED44"/>
</linearGradient>
</defs>
</svg>
