<svg width="47" height="61" viewBox="0 0 47 61" fill="none" xmlns="http://www.w3.org/2000/svg">
<g filter="url(#filter0_d_19_166)">
<path d="M23.9723 52.696C21.5362 52.6795 19.1581 52.2569 16.8381 51.4283C14.518 50.5831 12.4299 49.2159 10.5739 47.3267C8.7178 45.4209 7.2429 42.8937 6.14915 39.745C5.0554 36.5798 4.51681 32.6605 4.53338 27.9872C4.53338 23.6288 4.9974 19.7427 5.92543 16.3288C6.85346 12.915 8.1875 10.0315 9.92756 7.67827C11.6676 5.30847 13.764 3.50213 16.2166 2.25923C18.6858 1.01633 21.4451 0.394884 24.4943 0.394884C27.6927 0.394884 30.5265 1.02462 32.9957 2.28409C35.4815 3.54356 37.4867 5.26704 39.0114 7.45455C40.536 9.62547 41.4806 12.0781 41.8452 14.8125H32.772C32.308 12.857 31.3551 11.2992 29.9134 10.1392C28.4882 8.96259 26.6818 8.37429 24.4943 8.37429C20.9645 8.37429 18.2467 9.9072 16.3409 12.973C14.4517 16.0388 13.4988 20.2481 13.4822 25.6009H13.8303C14.6423 24.1425 15.6946 22.8913 16.9872 21.8473C18.2798 20.8033 19.7382 19.9995 21.3622 19.4361C23.0028 18.8561 24.7346 18.5661 26.5575 18.5661C29.5405 18.5661 32.2169 19.2786 34.5866 20.7038C36.973 22.129 38.8622 24.0928 40.2543 26.5952C41.6463 29.081 42.334 31.9313 42.3175 35.1463C42.334 38.4938 41.5717 41.5017 40.0305 44.1697C38.4893 46.8213 36.3433 48.9093 33.5923 50.4339C30.8414 51.9586 27.6347 52.7126 23.9723 52.696ZM23.9226 45.2386C25.7289 45.2386 27.3447 44.7995 28.7699 43.9212C30.1951 43.0429 31.322 41.858 32.1506 40.3665C32.9792 38.875 33.3852 37.2012 33.3686 35.3452C33.3852 33.5223 32.9875 31.8733 32.1754 30.3984C31.38 28.9235 30.2779 27.7552 28.8693 26.8935C27.4607 26.0317 25.8532 25.6009 24.0469 25.6009C22.7045 25.6009 21.4534 25.8577 20.2933 26.3714C19.1333 26.8852 18.1224 27.5978 17.2607 28.5092C16.3989 29.4041 15.7195 30.4482 15.2223 31.6413C14.7417 32.8179 14.4931 34.0774 14.4766 35.4197C14.4931 37.1929 14.9074 38.8253 15.7195 40.3168C16.5315 41.8082 17.6501 43.0014 19.0753 43.8963C20.5005 44.7912 22.1162 45.2386 23.9226 45.2386Z" fill="url(#paint0_linear_19_166)"/>
</g>
<defs>
<filter id="filter0_d_19_166" x="0.508545" y="0.394775" width="45.8337" height="60.3262" filterUnits="userSpaceOnUse" color-interpolation-filters="sRGB">
<feFlood flood-opacity="0" result="BackgroundImageFix"/>
<feColorMatrix in="SourceAlpha" type="matrix" values="0 0 0 0 0 0 0 0 0 0 0 0 0 0 0 0 0 0 127 0" result="hardAlpha"/>
<feOffset dy="4"/>
<feGaussianBlur stdDeviation="2"/>
<feComposite in2="hardAlpha" operator="out"/>
<feColorMatrix type="matrix" values="0 0 0 0 0 0 0 0 0 0 0 0 0 0 0 0 0 0 0.25 0"/>
<feBlend mode="normal" in2="BackgroundImageFix" result="effect1_dropShadow_19_166"/>
<feBlend mode="normal" in="SourceGraphic" in2="effect1_dropShadow_19_166" result="shape"/>
</filter>
<linearGradient id="paint0_linear_19_166" x1="23.5" y1="-9" x2="23.5" y2="63" gradientUnits="userSpaceOnUse">
<stop stop-color="#FED64A"/>
<stop offset="0.145" stop-color="#FEF14E"/>
<stop offset="0.31" stop-color="#FFDF6C"/>
<stop offset="0.48" stop-color="#FCFF67"/>
<stop offset="0.665" stop-color="#FED545"/>
<stop offset="0.835" stop-color="#FECA45"/>
<stop offset="0.965" stop-color="#FEED44"/>
</linearGradient>
</defs>
</svg>
