<svg width="47" height="61" viewBox="0 0 47 61" fill="none" xmlns="http://www.w3.org/2000/svg">
<g filter="url(#filter0_d_19_166)">
<path d="M23.0028 0.394884C25.4389 0.411457 27.8087 0.842329 30.1122 1.6875C32.4323 2.5161 34.5204 3.875 36.3764 5.7642C38.2325 7.63684 39.7074 10.1475 40.8011 13.2962C41.8949 16.4448 42.4418 20.3393 42.4418 24.9794C42.4583 29.3544 41.9943 33.2654 41.0497 36.7124C40.1217 40.1428 38.7876 43.0428 37.0476 45.4126C35.3075 47.7824 33.2112 49.5888 30.7585 50.8317C28.3059 52.0746 25.5466 52.696 22.4808 52.696C19.2659 52.696 16.4155 52.0663 13.9297 50.8068C11.4605 49.5473 9.46354 47.8239 7.93892 45.6364C6.4143 43.4489 5.47798 40.9465 5.12997 38.1293H14.2031C14.6671 40.151 15.6117 41.7585 17.0369 42.9517C18.4787 44.1283 20.2933 44.7166 22.4808 44.7166C26.0107 44.7166 28.7285 43.1837 30.6342 40.1179C32.54 37.0521 33.4929 32.7931 33.4929 27.3409H33.1449C32.3329 28.7992 31.2805 30.0587 29.9879 31.1193C28.6953 32.1634 27.2287 32.9671 25.5881 33.5305C23.964 34.094 22.2405 34.3757 20.4176 34.3757C17.4347 34.3757 14.75 33.6631 12.3636 32.2379C9.99384 30.8127 8.11293 28.8572 6.72088 26.3714C5.34541 23.8857 4.64938 21.0436 4.63281 17.8452C4.63281 14.5308 5.39512 11.5561 6.91974 8.92116C8.46094 6.26965 10.607 4.18158 13.358 2.65696C16.1089 1.11576 19.3239 0.36174 23.0028 0.394884ZM23.0277 7.85227C21.2379 7.85227 19.6222 8.29143 18.1804 9.16974C16.7552 10.0315 15.6283 11.2081 14.7997 12.6996C13.9877 14.1745 13.5817 15.8234 13.5817 17.6463C13.5982 19.4526 14.0043 21.0933 14.7997 22.5682C15.6117 24.0431 16.7138 25.2114 18.1058 26.0732C19.5144 26.9349 21.1219 27.3658 22.9283 27.3658C24.2706 27.3658 25.5218 27.1089 26.6818 26.5952C27.8419 26.0814 28.8527 25.3688 29.7145 24.4574C30.5928 23.5294 31.2723 22.477 31.7528 21.3004C32.25 20.1238 32.4903 18.8809 32.4737 17.5717C32.4737 15.8317 32.0594 14.2242 31.2308 12.7493C30.4188 11.2744 29.3002 10.0895 27.875 9.1946C26.4664 8.29972 24.8506 7.85227 23.0277 7.85227Z" fill="url(#paint0_linear_19_166)"/>
</g>
<defs>
<filter id="filter0_d_19_166" x="0.632812" y="0.345215" width="45.8339" height="60.3508" filterUnits="userSpaceOnUse" color-interpolation-filters="sRGB">
<feFlood flood-opacity="0" result="BackgroundImageFix"/>
<feColorMatrix in="SourceAlpha" type="matrix" values="0 0 0 0 0 0 0 0 0 0 0 0 0 0 0 0 0 0 127 0" result="hardAlpha"/>
<feOffset dy="4"/>
<feGaussianBlur stdDeviation="2"/>
<feComposite in2="hardAlpha" operator="out"/>
<feColorMatrix type="matrix" values="0 0 0 0 0 0 0 0 0 0 0 0 0 0 0 0 0 0 0.25 0"/>
<feBlend mode="normal" in2="BackgroundImageFix" result="effect1_dropShadow_19_166"/>
<feBlend mode="normal" in="SourceGraphic" in2="effect1_dropShadow_19_166" result="shape"/>
</filter>
<linearGradient id="paint0_linear_19_166" x1="23.5" y1="-9" x2="23.5" y2="63" gradientUnits="userSpaceOnUse">
<stop stop-color="#FED64A"/>
<stop offset="0.145" stop-color="#FEF14E"/>
<stop offset="0.31" stop-color="#FFDF6C"/>
<stop offset="0.48" stop-color="#FCFF67"/>
<stop offset="0.665" stop-color="#FED545"/>
<stop offset="0.835" stop-color="#FECA45"/>
<stop offset="0.965" stop-color="#FEED44"/>
</linearGradient>
</defs>
</svg>
