<svg width="47" height="61" viewBox="0 0 47 61" fill="none" xmlns="http://www.w3.org/2000/svg">
<g filter="url(#filter0_d_19_166)">
<path d="M23.528 52.696C19.8324 52.696 16.5512 52.0746 13.6842 50.8317C10.8338 49.5888 8.59662 47.8902 6.97257 45.7358C5.36509 43.5649 4.56963 41.1039 4.5862 38.353C4.56963 36.2152 5.03365 34.2514 5.97825 32.4616C6.92285 30.6719 8.19889 29.1804 9.80637 27.9872C11.4304 26.7775 13.2368 26.0069 15.2254 25.6754V25.3274C12.607 24.7474 10.4858 23.4134 8.86177 21.3253C7.25429 19.2206 6.45884 16.7928 6.47541 14.0419C6.45884 11.4235 7.188 9.08688 8.66291 7.03196C10.1378 4.97703 12.1596 3.36127 14.7282 2.18466C17.2969 0.991476 20.2301 0.394884 23.528 0.394884C26.7926 0.394884 29.701 0.991476 32.2531 2.18466C34.8218 3.36127 36.8435 4.97703 38.3185 7.03196C39.8099 9.08688 40.5557 11.4235 40.5557 14.0419C40.5557 16.7928 39.7354 19.2206 38.0947 21.3253C36.4707 23.4134 34.3743 24.7474 31.8057 25.3274V25.6754C33.7943 26.0069 35.5841 26.7775 37.175 27.9872C38.7825 29.1804 40.0585 30.6719 41.0031 32.4616C41.9643 34.2514 42.4449 36.2152 42.4449 38.353C42.4449 41.1039 41.6328 43.5649 40.0088 45.7358C38.3847 47.8902 36.1475 49.5888 33.2971 50.8317C30.4633 52.0746 27.2069 52.696 23.528 52.696ZM23.528 45.5866C25.4337 45.5866 27.0909 45.2635 28.4996 44.6172C29.9082 43.9543 31.0019 43.0263 31.7808 41.8331C32.5597 40.6399 32.9574 39.2644 32.974 37.7067C32.9574 36.0826 32.5348 34.6491 31.7062 33.4062C30.8942 32.1468 29.7756 31.1607 28.3504 30.4482C26.9418 29.7356 25.3343 29.3793 23.528 29.3793C21.705 29.3793 20.081 29.7356 18.6558 30.4482C17.2306 31.1607 16.1037 32.1468 15.2751 33.4062C14.4631 34.6491 14.0654 36.0826 14.0819 37.7067C14.0654 39.2644 14.4465 40.6399 15.2254 41.8331C16.0043 43.0097 17.098 43.9295 18.5067 44.5923C19.9318 45.2552 21.6056 45.5866 23.528 45.5866ZM23.528 22.3942C25.0857 22.3942 26.4612 22.0793 27.6544 21.4496C28.8641 20.8198 29.817 19.9415 30.5131 18.8146C31.2091 17.6877 31.5654 16.3868 31.5819 14.9119C31.5654 13.4536 31.2174 12.1776 30.5379 11.0838C29.8585 9.97348 28.9139 9.12003 27.7041 8.52344C26.4943 7.91027 25.1023 7.60369 23.528 7.60369C21.9205 7.60369 20.5036 7.91027 19.2773 8.52344C18.0675 9.12003 17.1229 9.97348 16.4434 11.0838C15.7806 12.1776 15.4574 13.4536 15.474 14.9119C15.4574 16.3868 15.7889 17.6877 16.4683 18.8146C17.1643 19.925 18.1172 20.8033 19.327 21.4496C20.5533 22.0793 21.9536 22.3942 23.528 22.3942Z" fill="url(#paint0_linear_19_166)"/>
</g>
<defs>
<filter id="filter0_d_19_166" x="0.561401" y="0.394775" width="45.8834" height="60.3013" filterUnits="userSpaceOnUse" color-interpolation-filters="sRGB">
<feFlood flood-opacity="0" result="BackgroundImageFix"/>
<feColorMatrix in="SourceAlpha" type="matrix" values="0 0 0 0 0 0 0 0 0 0 0 0 0 0 0 0 0 0 127 0" result="hardAlpha"/>
<feOffset dy="4"/>
<feGaussianBlur stdDeviation="2"/>
<feComposite in2="hardAlpha" operator="out"/>
<feColorMatrix type="matrix" values="0 0 0 0 0 0 0 0 0 0 0 0 0 0 0 0 0 0 0.25 0"/>
<feBlend mode="normal" in2="BackgroundImageFix" result="effect1_dropShadow_19_166"/>
<feBlend mode="normal" in="SourceGraphic" in2="effect1_dropShadow_19_166" result="shape"/>
</filter>
<linearGradient id="paint0_linear_19_166" x1="23.5" y1="-9" x2="23.5" y2="63" gradientUnits="userSpaceOnUse">
<stop stop-color="#FED64A"/>
<stop offset="0.145" stop-color="#FEF14E"/>
<stop offset="0.31" stop-color="#FFDF6C"/>
<stop offset="0.48" stop-color="#FCFF67"/>
<stop offset="0.665" stop-color="#FED545"/>
<stop offset="0.835" stop-color="#FECA45"/>
<stop offset="0.965" stop-color="#FEED44"/>
</linearGradient>
</defs>
</svg>
