<svg width="32" height="32" viewBox="0 0 32 32" fill="none" xmlns="http://www.w3.org/2000/svg">
<g clip-path="url(#clip0_381_77487)">
<path d="M23.5625 21.6875C23.5625 22.7385 24.3865 23.5625 25.4375 23.5625C26.4885 23.5625 27.3125 22.7385 27.3125 21.6875C27.3125 20.6365 26.4885 19.8125 25.4375 19.8125C24.3865 19.8125 23.5625 20.6365 23.5625 21.6875ZM30.125 17.9375V14.1875C30.125 12.6312 28.8688 11.375 27.3125 11.375H23.5625L19.9517 9.5L16.0625 11.375H2.8125C1.25619 11.375 0 12.6312 0 14.1875V29.1875C0 30.7437 1.25619 32 2.8125 32H27.3125C28.8688 32 30.125 30.7437 30.125 29.1875V25.4375C30.125 24.9124 29.7126 24.5 29.1875 24.5H25.4375C23.8812 24.5 22.625 23.2437 22.625 21.6875C22.625 20.1518 23.901 18.875 25.4375 18.875H29.1875C29.7126 18.875 30.125 18.4624 30.125 17.9375Z" fill="url(#paint0_linear_381_77487)"/>
<path d="M24.5 8.5625C24.5 5.975 22.4 3.875 19.8125 3.875C17.225 3.875 15.125 5.975 15.125 8.5625C15.125 9.6125 15.4812 10.6062 16.0625 11.375H23.5625C24.1437 10.6062 24.5 9.6125 24.5 8.5625ZM29.1875 17H25.4375C22.8743 17 20.75 19.0736 20.75 21.6875C20.75 24.275 22.85 26.375 25.4375 26.375H29.1875C30.7438 26.375 32 25.1187 32 23.5625V19.8125C32 18.2563 30.7438 17 29.1875 17ZM25.4375 22.625C24.9124 22.625 24.5 22.2124 24.5 21.6875C24.5 21.1624 24.9124 20.75 25.4375 20.75C25.9626 20.75 26.375 21.1624 26.375 21.6875C26.375 22.2124 25.9626 22.625 25.4375 22.625ZM13.25 17V16.0625C13.25 15.5443 12.8307 15.125 12.3125 15.125C11.7943 15.125 11.375 15.5443 11.375 16.0625V17H9.5C8.98181 17 8.5625 17.4193 8.5625 17.9375C8.5625 18.4557 8.98181 18.875 9.5 18.875V24.5C8.98181 24.5 8.5625 24.9193 8.5625 25.4375C8.5625 25.9557 8.98181 26.375 9.5 26.375H11.375V27.3125C11.375 27.8307 11.7943 28.25 12.3125 28.25C12.8307 28.25 13.25 27.8307 13.25 27.3125V26.375C14.8009 26.375 16.0625 25.1134 16.0625 23.5625C16.0625 22.8429 15.7915 22.1856 15.3448 21.6875C15.7915 21.1894 16.0625 20.5321 16.0625 19.8125C16.0625 18.2616 14.8009 17 13.25 17ZM13.25 24.5H11.375V22.625H13.25C13.7664 22.625 14.1875 23.0452 14.1875 23.5625C14.1875 24.0798 13.7664 24.5 13.25 24.5ZM13.25 20.75H11.375V18.875H13.25C13.7664 18.875 14.1875 19.2952 14.1875 19.8125C14.1875 20.3298 13.7664 20.75 13.25 20.75ZM13.25 3.75C13.25 1.68181 11.5673 0 9.5 0C7.43275 0 5.75 1.68181 5.75 3.75C5.75 5.81819 7.43275 7.5 9.5 7.5C11.5673 7.5 13.25 5.81819 13.25 3.75Z" fill="url(#paint1_linear_381_77487)"/>
</g>
<defs>
<linearGradient id="paint0_linear_381_77487" x1="15.0625" y1="32" x2="15.0625" y2="9.5" gradientUnits="userSpaceOnUse">
<stop stop-color="#FD5900"/>
<stop offset="1" stop-color="#FFDE00"/>
</linearGradient>
<linearGradient id="paint1_linear_381_77487" x1="18.875" y1="28.25" x2="18.875" y2="0" gradientUnits="userSpaceOnUse">
<stop stop-color="#FFE59A"/>
<stop offset="1" stop-color="#FFFFD5"/>
</linearGradient>
<clipPath id="clip0_381_77487">
<rect width="32" height="32" fill="white"/>
</clipPath>
</defs>
</svg>
