<svg width="440" height="67" viewBox="0 0 440 67" fill="none" xmlns="http://www.w3.org/2000/svg">
<path fill-rule="evenodd" clip-rule="evenodd" d="M-4 1.00713H77.5C94.5 1.00712 104.143 3.50714 113 19.0071C113.192 19.3425 113.382 19.6753 113.571 20.0059C119.293 30.0241 123.819 37.9482 133.5 51.3168C141 60.5071 150.987 64.5071 164.5 64.5071H220H275.5C289.013 64.5071 299 60.5071 306.5 51.3168C316.181 37.9482 320.707 30.0241 326.429 20.0059C326.618 19.6753 326.808 19.3425 327 19.0071C335.857 3.50714 345 1.00712 362.5 1.00713H444V66.5071H220H-4V1.00713Z" fill="url(#paint0_linear_263_2655)"/>
<path d="M77.5 1.00713V1.50713V1.00713ZM-4 1.00713V0.507126C-4.27614 0.507126 -4.5 0.730983 -4.5 1.00713H-4ZM113 19.0071L112.566 19.2552L113 19.0071ZM113.571 20.0059L114.005 19.7579L114.005 19.7579L113.571 20.0059ZM133.5 51.3168L133.095 51.61C133.101 51.6178 133.107 51.6254 133.113 51.6329L133.5 51.3168ZM306.5 51.3168L306.887 51.6329C306.893 51.6254 306.899 51.6178 306.905 51.61L306.5 51.3168ZM326.429 20.0059L325.995 19.7579V19.7579L326.429 20.0059ZM327 19.0071L327.434 19.2552V19.2552L327 19.0071ZM362.5 1.00713V1.50713V1.00713ZM444 1.00713H444.5C444.5 0.730983 444.276 0.507126 444 0.507126V1.00713ZM444 66.5071V67.0071C444.276 67.0071 444.5 66.7833 444.5 66.5071H444ZM-4 66.5071H-4.5C-4.5 66.7833 -4.27614 67.0071 -4 67.0071V66.5071ZM77.5 0.507126H-4V1.50713H77.5V0.507126ZM113.434 18.7591C108.971 10.9479 104.276 6.35775 98.5103 3.73937C92.764 1.12987 86.0112 0.507121 77.5 0.507126V1.50713C85.9888 1.50712 92.5575 2.13437 98.0968 4.64988C103.617 7.15651 108.172 11.5663 112.566 19.2552L113.434 18.7591ZM114.005 19.7579C113.816 19.4273 113.626 19.0945 113.434 18.7591L112.566 19.2552C112.757 19.5905 112.948 19.9233 113.136 20.2539L114.005 19.7579ZM133.905 51.0235C124.24 37.6767 119.724 29.7708 114.005 19.7579L113.136 20.2539C118.862 30.2774 123.399 38.2197 133.095 51.61L133.905 51.0235ZM164.5 64.0071C151.101 64.0071 141.272 60.0496 133.887 51.0006L133.113 51.6329C140.728 60.9646 150.872 65.0071 164.5 65.0071V64.0071ZM220 64.0071H164.5V65.0071H220V64.0071ZM220 65.0071H275.5V64.0071H220V65.0071ZM275.5 65.0071C289.128 65.0071 299.272 60.9646 306.887 51.6329L306.113 51.0006C298.728 60.0496 288.899 64.0071 275.5 64.0071V65.0071ZM306.905 51.61C316.601 38.2197 321.138 30.2774 326.864 20.2539L325.995 19.7579C320.276 29.7708 315.76 37.6767 306.095 51.0235L306.905 51.61ZM326.864 20.2539C327.052 19.9233 327.242 19.5905 327.434 19.2552L326.566 18.759C326.374 19.0945 326.184 19.4273 325.995 19.7579L326.864 20.2539ZM327.434 19.2552C331.831 11.5615 336.263 7.15394 341.718 4.64901C347.193 2.13483 353.759 1.50712 362.5 1.50713V0.507126C353.741 0.507121 346.986 1.12941 341.3 3.74024C335.595 6.36032 331.027 10.9528 326.566 18.7591L327.434 19.2552ZM362.5 1.50713H444V0.507126H362.5V1.50713ZM443.5 1.00713V66.5071H444.5V1.00713H443.5ZM444 66.0071H220V67.0071H444V66.0071ZM-4 67.0071H220V66.0071H-4V67.0071ZM-4.5 1.00713V66.5071H-3.5V1.00713H-4.5Z" fill="url(#paint1_linear_263_2655)" fill-opacity="0.5"/>
<defs>
<linearGradient id="paint0_linear_263_2655" x1="220" y1="1.00713" x2="220" y2="66.5071" gradientUnits="userSpaceOnUse">
<stop stop-color="#13243E"/>
<stop offset="0.495" stop-color="#1D3562"/>
<stop offset="1" stop-color="#09133E"/>
</linearGradient>
<linearGradient id="paint1_linear_263_2655" x1="220" y1="1.00713" x2="220" y2="66.5071" gradientUnits="userSpaceOnUse">
<stop stop-color="#253650"/>
<stop offset="0.21" stop-color="white" stop-opacity="0.2"/>
<stop offset="1" stop-color="#09133E"/>
</linearGradient>
</defs>
</svg>
