<svg width="14" height="20" viewBox="0 0 14 20" fill="none" xmlns="http://www.w3.org/2000/svg">
<path d="M13.8161 8.58075L5.51243 19.8308C5.47368 19.8832 5.42315 19.9259 5.36492 19.9553C5.30669 19.9847 5.24237 20 5.17713 20C5.12221 20.0002 5.06782 19.9892 5.01722 19.9679C4.93112 19.9322 4.85949 19.8687 4.81381 19.7874C4.76814 19.7062 4.75107 19.612 4.76534 19.5199L5.91159 12.0833H0.980759C0.903657 12.0833 0.828066 12.0619 0.762399 12.0215C0.696732 11.9811 0.643564 11.9233 0.608811 11.8545C0.574059 11.7856 0.559086 11.7085 0.565557 11.6317C0.572029 11.5549 0.599692 11.4813 0.645468 11.4193L8.94909 0.169292C9.00442 0.0943162 9.08327 0.0400473 9.17306 0.0151568C9.26285 -0.00973357 9.3584 -0.00380889 9.44443 0.0319842C9.53045 0.0677773 9.602 0.131373 9.64764 0.21261C9.69327 0.293846 9.71036 0.388035 9.69618 0.480126L8.54993 7.91667H13.4808C13.5579 7.91666 13.6335 7.93805 13.6991 7.97846C13.7648 8.01887 13.818 8.07671 13.8527 8.14554C13.8875 8.21437 13.9025 8.2915 13.896 8.36834C13.8895 8.44518 13.8618 8.51871 13.8161 8.58075Z" fill="#FFCE33"/>
</svg>
