<svg width="24" height="25" viewBox="0 0 24 25" fill="none" xmlns="http://www.w3.org/2000/svg">
<g clip-path="url(#clip0_400_9872)">
<g clip-path="url(#clip1_400_9872)">
<path fill-rule="evenodd" clip-rule="evenodd" d="M14.9403 1.70229L15.7764 4.12685C16.4718 4.42492 17.1282 4.80441 17.7332 5.25762L20.2527 4.76869C20.5451 4.71178 20.8465 4.81557 21.043 5.03997C22.0644 6.21206 22.8491 7.57059 23.3526 9.04181C23.4497 9.32425 23.3883 9.6368 23.1929 9.86225L21.5107 11.7979C21.6 12.5491 21.6 13.3082 21.5107 14.0583L23.1929 15.995C23.3883 16.2205 23.4497 16.5331 23.3526 16.8155C22.8491 18.2867 22.0644 19.6452 21.043 20.8173C20.8465 21.0417 20.5451 21.1455 20.2527 21.0886L17.7343 20.5997C17.1282 21.0529 16.4707 21.4324 15.7764 21.7293L14.9403 24.155C14.8432 24.4374 14.6032 24.6462 14.3107 24.7042C12.7848 25.0034 11.2153 25.0034 9.68934 24.7042C9.39688 24.6462 9.1569 24.4374 9.05976 24.155L8.22369 21.7304C7.52822 21.4324 6.8719 21.0529 6.26683 20.5996L3.74741 21.0887C3.45494 21.1456 3.15355 21.0418 2.95708 20.8174C1.93567 19.6453 1.15094 18.2868 0.64748 16.8155C0.550342 16.5331 0.611759 16.2206 0.807086 15.9951L2.48934 14.0595C2.40004 13.3082 2.40004 12.5492 2.48934 11.799L0.80713 9.86225C0.611803 9.63676 0.550386 9.3242 0.64748 9.04181C1.15094 7.57055 1.93567 6.21206 2.95704 5.03992C3.1535 4.81553 3.4549 4.71174 3.74737 4.76869L6.26569 5.25762C6.87185 4.80441 7.52932 4.42487 8.22364 4.12794L9.05972 1.70229C9.15685 1.4199 9.39683 1.21113 9.6893 1.15308C11.2152 0.85392 12.7847 0.85392 14.3107 1.15308C14.6032 1.21113 14.8432 1.41985 14.9403 1.70229ZM12 7.99364C9.27632 7.99364 7.06495 10.205 7.06495 12.9287C7.06495 15.6525 9.27627 17.8638 12 17.8638C14.7238 17.8638 16.9351 15.6524 16.9351 12.9287C16.9351 10.205 14.7238 7.99364 12 7.99364Z" fill="white"/>
<path fill-rule="evenodd" clip-rule="evenodd" d="M12 9.66797C13.7995 9.66797 15.2606 11.1292 15.2606 12.9286C15.2606 14.728 13.7995 16.1892 12 16.1892C10.2006 16.1892 8.73938 14.728 8.73938 12.9286C8.73938 11.1292 10.2006 9.66797 12 9.66797Z" fill="#24E6F3"/>
</g>
</g>
<defs>
<clipPath id="clip0_400_9872">
<rect width="24" height="24" fill="white" transform="translate(0 0.5)"/>
</clipPath>
<clipPath id="clip1_400_9872">
<rect width="24" height="24" fill="white" transform="translate(0 0.928711)"/>
</clipPath>
</defs>
</svg>
