<svg width="26" height="27" viewBox="0 0 26 27" fill="none" xmlns="http://www.w3.org/2000/svg">
<g clip-path="url(#clip0_333_4912)">
<g filter="url(#filter0_d_333_4912)">
<path d="M19.9602 7.49291V2.76025H14.9232L19.9602 7.49291Z" fill="white"/>
<path d="M7.20123 8.49232H18.7988L13 3.04395L7.20123 8.49232Z" fill="#24E5F3"/>
<path d="M19.5576 10.0156H6.44244L13 25.0174L19.5576 10.0156Z" fill="white"/>
<path d="M6.03979 7.49291L11.0768 2.76025H6.03979V7.49291Z" fill="white"/>
<path d="M4.51638 8.49225V3.90771L0.165039 8.49225H4.51638Z" fill="white"/>
<path d="M21.4836 8.49225H25.835L21.4836 3.90771V8.49225Z" fill="white"/>
<path d="M21.2202 10.0156L15.8718 22.251L26 10.0156H21.2202Z" fill="white"/>
<path d="M4.77978 10.0156H0L10.1282 22.251L4.77978 10.0156Z" fill="white"/>
</g>
</g>
<defs>
<filter id="filter0_d_333_4912" x="-1" y="2.76025" width="28" height="24.2573" filterUnits="userSpaceOnUse" color-interpolation-filters="sRGB">
<feFlood flood-opacity="0" result="BackgroundImageFix"/>
<feColorMatrix in="SourceAlpha" type="matrix" values="0 0 0 0 0 0 0 0 0 0 0 0 0 0 0 0 0 0 127 0" result="hardAlpha"/>
<feOffset dy="1"/>
<feGaussianBlur stdDeviation="0.5"/>
<feComposite in2="hardAlpha" operator="out"/>
<feColorMatrix type="matrix" values="0 0 0 0 0 0 0 0 0 0 0 0 0 0 0 0 0 0 0.08 0"/>
<feBlend mode="normal" in2="BackgroundImageFix" result="effect1_dropShadow_333_4912"/>
<feBlend mode="normal" in="SourceGraphic" in2="effect1_dropShadow_333_4912" result="shape"/>
</filter>
<clipPath id="clip0_333_4912">
<rect width="26" height="26" fill="white" transform="translate(0 0.888672)"/>
</clipPath>
</defs>
</svg>
