<svg width="28" height="22" viewBox="0 0 28 22" fill="none" xmlns="http://www.w3.org/2000/svg">
<g filter="url(#filter0_d_333_4943)">
<path d="M26.8334 18.0552C26.8334 18.3646 26.7104 18.6613 26.4916 18.8801C26.2729 19.0989 25.9761 19.2218 25.6667 19.2218H11.6667C11.3573 19.2218 11.0605 19.0989 10.8417 18.8801C10.6229 18.6613 10.5 18.3646 10.5 18.0552C10.5 16.1987 11.2375 14.4182 12.5503 13.1054C13.863 11.7927 15.6435 11.0552 17.5 11.0552H19.8334C21.6899 11.0552 23.4703 11.7927 24.7831 13.1054C26.0959 14.4182 26.8334 16.1987 26.8334 18.0552ZM18.6667 0.555176C17.7437 0.555176 16.8415 0.828871 16.074 1.34165C15.3066 1.85443 14.7085 2.58326 14.3552 3.43599C14.002 4.28871 13.9096 5.22702 14.0897 6.13226C14.2698 7.03751 14.7142 7.86903 15.3669 8.52167C16.0195 9.17432 16.851 9.61878 17.7563 9.79884C18.6615 9.9789 19.5998 9.88649 20.4525 9.53328C21.3053 9.18007 22.0341 8.58193 22.5469 7.8145C23.0597 7.04707 23.3334 6.14482 23.3334 5.22184C23.3334 3.98417 22.8417 2.79718 21.9665 1.92201C21.0913 1.04684 19.9044 0.555176 18.6667 0.555176ZM8.16669 0.555176C7.24371 0.555176 6.34146 0.828871 5.57403 1.34165C4.8066 1.85443 4.20846 2.58326 3.85525 3.43599C3.50204 4.28871 3.40962 5.22702 3.58969 6.13226C3.76975 7.03751 4.21421 7.86903 4.86686 8.52167C5.5195 9.17432 6.35102 9.61878 7.25627 9.79884C8.16151 9.9789 9.09982 9.88649 9.95254 9.53328C10.8053 9.18007 11.5341 8.58193 12.0469 7.8145C12.5597 7.04707 12.8334 6.14482 12.8334 5.22184C12.8334 3.98417 12.3417 2.79718 11.4665 1.92201C10.5913 1.04684 9.40436 0.555176 8.16669 0.555176ZM8.16669 18.0552C8.16495 16.8297 8.40639 15.6161 8.877 14.4846C9.34762 13.3531 10.0381 12.3263 10.9084 11.4635C10.1961 11.1946 9.4413 11.0563 8.68002 11.0552H7.65335C5.93393 11.0583 4.28581 11.7427 3.06999 12.9585C1.85418 14.1743 1.16977 15.8224 1.16669 17.5418V18.0552C1.16669 18.3646 1.2896 18.6613 1.5084 18.8801C1.72719 19.0989 2.02393 19.2218 2.33335 19.2218H8.37669C8.24086 18.8477 8.16984 18.4532 8.16669 18.0552Z" fill="white"/>
</g>
<defs>
<filter id="filter0_d_333_4943" x="0.166687" y="0.555176" width="27.6667" height="20.6665" filterUnits="userSpaceOnUse" color-interpolation-filters="sRGB">
<feFlood flood-opacity="0" result="BackgroundImageFix"/>
<feColorMatrix in="SourceAlpha" type="matrix" values="0 0 0 0 0 0 0 0 0 0 0 0 0 0 0 0 0 0 127 0" result="hardAlpha"/>
<feOffset dy="1"/>
<feGaussianBlur stdDeviation="0.5"/>
<feComposite in2="hardAlpha" operator="out"/>
<feColorMatrix type="matrix" values="0 0 0 0 0 0 0 0 0 0 0 0 0 0 0 0 0 0 0.08 0"/>
<feBlend mode="normal" in2="BackgroundImageFix" result="effect1_dropShadow_333_4943"/>
<feBlend mode="normal" in="SourceGraphic" in2="effect1_dropShadow_333_4943" result="shape"/>
</filter>
</defs>
</svg>
