<svg width="28" height="23" viewBox="0 0 28 23" fill="none" xmlns="http://www.w3.org/2000/svg">
<g filter="url(#filter0_d_333_4926)">
<path d="M25.9763 5.1375C25.7163 2.635 23.6362 0.75 21.1175 0.75H6.8825C4.36375 0.75 2.28375 2.635 2.02375 5.1375L1 15.4563C1.04875 18.105 3.21 20.25 5.875 20.25C6.76875 20.25 7.5 19.5188 7.5 18.625C7.5 16.8375 8.9625 15.375 10.75 15.375H17.25C19.0375 15.375 20.5 16.8375 20.5 18.625C20.5 19.5188 21.2312 20.25 22.125 20.25C24.8062 20.25 27 18.0562 27 15.375L25.9763 5.1375ZM11.5625 9.6875H10.75V10.5C10.75 11.3938 10.0188 12.125 9.125 12.125C8.23125 12.125 7.5 11.3938 7.5 10.5V9.6875H6.6875C5.79375 9.6875 5.0625 8.95625 5.0625 8.0625C5.0625 7.16875 5.79375 6.4375 6.6875 6.4375H7.5V5.625C7.5 4.73125 8.23125 4 9.125 4C10.0188 4 10.75 4.73125 10.75 5.625V6.4375H11.5625C12.4563 6.4375 13.1875 7.16875 13.1875 8.0625C13.1875 8.95625 12.4563 9.6875 11.5625 9.6875ZM18.875 12.125C17.9812 12.125 17.25 11.3938 17.25 10.5C17.25 9.60625 17.9812 8.875 18.875 8.875C19.7688 8.875 20.5 9.60625 20.5 10.5C20.5 11.3938 19.7688 12.125 18.875 12.125ZM22.125 7.25C21.2312 7.25 20.5 6.51875 20.5 5.625C20.5 4.73125 21.2312 4 22.125 4C23.0188 4 23.75 4.73125 23.75 5.625C23.75 6.51875 23.0188 7.25 22.125 7.25Z" fill="white"/>
</g>
<defs>
<filter id="filter0_d_333_4926" x="0" y="0.75" width="28" height="21.5" filterUnits="userSpaceOnUse" color-interpolation-filters="sRGB">
<feFlood flood-opacity="0" result="BackgroundImageFix"/>
<feColorMatrix in="SourceAlpha" type="matrix" values="0 0 0 0 0 0 0 0 0 0 0 0 0 0 0 0 0 0 127 0" result="hardAlpha"/>
<feOffset dy="1"/>
<feGaussianBlur stdDeviation="0.5"/>
<feComposite in2="hardAlpha" operator="out"/>
<feColorMatrix type="matrix" values="0 0 0 0 0 0 0 0 0 0 0 0 0 0 0 0 0 0 0.08 0"/>
<feBlend mode="normal" in2="BackgroundImageFix" result="effect1_dropShadow_333_4926"/>
<feBlend mode="normal" in="SourceGraphic" in2="effect1_dropShadow_333_4926" result="shape"/>
</filter>
</defs>
</svg>
